<svg width="28" height="28" viewBox="0 0 28 28" fill="none" xmlns="http://www.w3.org/2000/svg">
<path d="M14 4.25C8.624 4.25 4.25 8.624 4.25 14C4.25 19.376 8.624 23.75 14 23.75C19.376 23.75 23.75 19.376 23.75 14C23.75 8.624 19.376 4.25 14 4.25ZM14 5.75C18.5487 5.75 22.25 9.45125 22.25 14C22.25 18.5487 18.5487 22.25 14 22.25C9.45125 22.25 5.75 18.5487 5.75 14C5.75 9.45125 9.45125 5.75 14 5.75ZM10.625 11C10.3266 11 10.0405 11.1185 9.8295 11.3295C9.61853 11.5405 9.5 11.8266 9.5 12.125C9.5 12.4234 9.61853 12.7095 9.8295 12.9205C10.0405 13.1315 10.3266 13.25 10.625 13.25C10.9234 13.25 11.2095 13.1315 11.4205 12.9205C11.6315 12.7095 11.75 12.4234 11.75 12.125C11.75 11.8266 11.6315 11.5405 11.4205 11.3295C11.2095 11.1185 10.9234 11 10.625 11ZM17.375 11C17.0766 11 16.7905 11.1185 16.5795 11.3295C16.3685 11.5405 16.25 11.8266 16.25 12.125C16.25 12.4234 16.3685 12.7095 16.5795 12.9205C16.7905 13.1315 17.0766 13.25 17.375 13.25C17.6734 13.25 17.9595 13.1315 18.1705 12.9205C18.3815 12.7095 18.5 12.4234 18.5 12.125C18.5 11.8266 18.3815 11.5405 18.1705 11.3295C17.9595 11.1185 17.6734 11 17.375 11ZM8.75 16.25C8.75 16.25 9.95375 20 14 20C18.0463 20 19.25 16.25 19.25 16.25H8.75Z" fill="white"/>
</svg>
