<svg width="28" height="28" viewBox="0 0 28 28" fill="none" xmlns="http://www.w3.org/2000/svg">
<path d="M4.375 6.125C3.89307 6.125 3.5 6.51807 3.5 7C3.5 7.48193 3.89307 7.875 4.375 7.875H6.31641L8.61328 17.0625C8.80811 17.8418 9.50537 18.375 10.3086 18.375H20.3438C21.1333 18.375 21.8032 17.8521 22.0117 17.0898L24.2812 8.75H9.625L10.0625 10.5H22.0117L20.3438 16.625H10.3086L8.01172 7.4375C7.81689 6.6582 7.11963 6.125 6.31641 6.125H4.375ZM19.25 18.375C17.811 18.375 16.625 19.561 16.625 21C16.625 22.439 17.811 23.625 19.25 23.625C20.689 23.625 21.875 22.439 21.875 21C21.875 19.561 20.689 18.375 19.25 18.375ZM11.375 18.375C9.93604 18.375 8.75 19.561 8.75 21C8.75 22.439 9.93604 23.625 11.375 23.625C12.814 23.625 14 22.439 14 21C14 19.561 12.814 18.375 11.375 18.375ZM11.375 20.125C11.8672 20.125 12.25 20.5078 12.25 21C12.25 21.4922 11.8672 21.875 11.375 21.875C10.8828 21.875 10.5 21.4922 10.5 21C10.5 20.5078 10.8828 20.125 11.375 20.125ZM19.25 20.125C19.7422 20.125 20.125 20.5078 20.125 21C20.125 21.4922 19.7422 21.875 19.25 21.875C18.7578 21.875 18.375 21.4922 18.375 21C18.375 20.5078 18.7578 20.125 19.25 20.125Z" fill="white"/>
</svg>
