<svg width="28" height="28" viewBox="0 0 28 28" fill="none" xmlns="http://www.w3.org/2000/svg">
<path d="M14 3.5C9.6626 3.5 6.125 7.0376 6.125 11.375V12.25C6.125 13.689 7.31104 14.875 8.75 14.875H10.0898C10.3154 15.1245 10.5615 15.3535 10.8281 15.5586C8.06299 16.7822 6.125 19.5405 6.125 22.75H7.875C7.875 19.356 10.606 16.625 14 16.625C17.394 16.625 20.125 19.356 20.125 22.75H21.875C21.875 19.5405 19.937 16.7822 17.1719 15.5586C17.4385 15.3535 17.6846 15.1245 17.9102 14.875H19.25C20.689 14.875 21.875 13.689 21.875 12.25V11.375C21.875 7.0376 18.3374 3.5 14 3.5ZM14 5.25C16.7856 5.25 19.1304 7.08545 19.8789 9.625H18.9492C18.228 7.58789 16.2798 6.125 14 6.125C11.7202 6.125 9.77197 7.58789 9.05078 9.625H8.12109C8.86963 7.08545 11.2144 5.25 14 5.25ZM14 7.875C15.9448 7.875 17.5 9.43018 17.5 11.375C17.5 13.3198 15.9448 14.875 14 14.875C12.0552 14.875 10.5 13.3198 10.5 11.375C10.5 9.43018 12.0552 7.875 14 7.875ZM7.875 11.375H8.75V13.125C8.25439 13.125 7.875 12.7456 7.875 12.25V11.375ZM19.25 11.375H20.125V12.25C20.125 12.7456 19.7456 13.125 19.25 13.125V11.375Z" fill="#EE1C25"/>
</svg>
