<svg width="28" height="28" viewBox="0 0 28 28" fill="none" xmlns="http://www.w3.org/2000/svg">
<path d="M5.25 2.625V25.375H22.75V11.7578L24.2539 10.2539L24.5 9.98047V2.625H5.25ZM7 4.375H19.25V9.98047L19.4961 10.2539L21 11.7578V23.625H7V4.375ZM21 4.375H22.75V9.24219L21.875 10.1172L21 9.24219V4.375ZM14 10.1719V14.9297C13.8564 14.8989 13.7129 14.875 13.5625 14.875C12.356 14.875 11.375 15.856 11.375 17.0625C11.375 18.269 12.356 19.25 13.5625 19.25C14.769 19.25 15.75 18.269 15.75 17.0625V12.5781L17.2266 13.0703L17.7734 11.4297L14 10.1719Z" fill="white"/>
</svg>
