<svg width="28" height="28" viewBox="0 0 28 28" fill="none" xmlns="http://www.w3.org/2000/svg">
<path d="M14 3.55469V16.6523C13.2651 16.0918 12.3662 15.75 11.375 15.75C8.96875 15.75 7 17.7188 7 20.125C7 22.5312 8.96875 24.5 11.375 24.5C13.7812 24.5 15.75 22.5312 15.75 20.125V9.57031L21.5742 11.7578L22.75 12.1953V6.83594L22.1758 6.61719L15.1758 3.99219L14 3.55469ZM15.75 6.07031L21 8.03906V9.67969L15.75 7.71094V6.07031ZM11.375 17.5C12.8345 17.5 14 18.6655 14 20.125C14 21.5845 12.8345 22.75 11.375 22.75C9.91553 22.75 8.75 21.5845 8.75 20.125C8.75 18.6655 9.91553 17.5 11.375 17.5Z" fill="white"/>
</svg>
