<svg width="212" height="101" viewBox="0 0 212 101" fill="none" xmlns="http://www.w3.org/2000/svg">
<rect width="150" height="40" transform="translate(29.9844 29.9062)" fill="#EE1C25"/>
<g filter="url(#filter0_d_1236_588)">
<path d="M48.0781 53.043L43.9355 53.0293L44.5508 49.502L48.2695 49.5293C48.8438 49.5202 49.3223 49.3835 49.7051 49.1191C50.097 48.8457 50.4023 48.4902 50.6211 48.0527C50.849 47.6061 50.9993 47.1185 51.0723 46.5898C51.127 46.1979 51.1452 45.7741 51.127 45.3184C51.1087 44.8535 50.9948 44.4525 50.7852 44.1152C50.5846 43.7689 50.2292 43.5775 49.7188 43.541L47.0664 43.5273L44.2227 59.9062H39.998L43.4434 40L49.8828 40.0137C51.1224 40.0501 52.166 40.3646 53.0137 40.957C53.8613 41.5495 54.4857 42.3333 54.8867 43.3086C55.2878 44.2839 55.4382 45.3685 55.3379 46.5625C55.2285 47.8932 54.8457 49.0417 54.1895 50.0078C53.5423 50.974 52.6901 51.7259 51.6328 52.2637C50.5755 52.7923 49.3906 53.0521 48.0781 53.043ZM66.4947 56.3926L65.8795 59.9062H57.7857L58.3873 56.3926H66.4947ZM62.6392 40L59.1939 59.9062H54.9693L58.4146 40H62.6392ZM77.5968 44.0742L71.0343 59.9062H66.4132L75.8468 40H78.7726L77.5968 44.0742ZM77.9386 59.9062L76.8175 43.6914L76.9816 40H79.7706L82.3273 59.9062H77.9386ZM79.3468 52.4824L78.7179 55.9961H70.1456L70.7745 52.4824H79.3468ZM100.634 40L97.1755 59.9062H93.0602L89.943 47.0137L87.6872 59.9062H83.4626L86.9079 40H91.0505L94.1677 52.9062L96.4098 40H100.634ZM111.367 56.3926L110.752 59.9062H102.317L102.932 56.3926H111.367ZM107.17 40L103.725 59.9062H99.5002L102.946 40H107.17ZM111.723 47.9844L111.121 51.375H103.793L104.395 47.9844H111.723ZM114.211 40L113.596 43.5273H105.147L105.762 40H114.211ZM119.68 53.7266L122.005 40H126.229L123.891 53.7129C123.736 54.8613 123.381 55.9368 122.825 56.9395C122.269 57.9329 121.531 58.7305 120.61 59.332C119.69 59.9336 118.6 60.2207 117.343 60.1934C116.112 60.166 115.123 59.8652 114.376 59.291C113.628 58.7168 113.095 57.9648 112.776 57.0352C112.466 56.1055 112.334 55.0755 112.38 53.9453L116.645 53.959C116.627 54.278 116.609 54.6471 116.591 55.0664C116.582 55.4857 116.65 55.8594 116.796 56.1875C116.942 56.5065 117.247 56.6751 117.712 56.6934C118.204 56.7025 118.582 56.5384 118.846 56.2012C119.111 55.8548 119.302 55.4492 119.421 54.9844C119.539 54.5104 119.626 54.0911 119.68 53.7266ZM134.665 44.0742L128.103 59.9062H123.482L132.915 40H135.841L134.665 44.0742ZM135.007 59.9062L133.886 43.6914L134.05 40H136.839L139.396 59.9062H135.007ZM136.415 52.4824L135.786 55.9961H127.214L127.843 52.4824H136.415ZM157.703 40L154.244 59.9062H150.129L147.012 47.0137L144.756 59.9062H140.531L143.976 40H148.119L151.236 52.9062L153.478 40H157.703ZM168.436 56.3926L167.821 59.9062H159.385L160 56.3926H168.436ZM164.239 40L160.793 59.9062H156.569L160.014 40H164.239ZM168.791 47.9844L168.19 51.375H160.862L161.463 47.9844H168.791ZM171.28 40L170.665 43.5273H162.215L162.831 40H171.28Z" fill="white"/>
</g>
<defs>
<filter id="filter0_d_1236_588" x="0" y="0" width="211.281" height="100.234" filterUnits="userSpaceOnUse" color-interpolation-filters="sRGB">
<feFlood flood-opacity="0" result="BackgroundImageFix"/>
<feColorMatrix in="SourceAlpha" type="matrix" values="0 0 0 0 0 0 0 0 0 0 0 0 0 0 0 0 0 0 127 0" result="hardAlpha"/>
<feOffset/>
<feGaussianBlur stdDeviation="20"/>
<feComposite in2="hardAlpha" operator="out"/>
<feColorMatrix type="matrix" values="0 0 0 0 0 0 0 0 0 0 0 0 0 0 0 0 0 0 0.8 0"/>
<feBlend mode="normal" in2="BackgroundImageFix" result="effect1_dropShadow_1236_588"/>
<feBlend mode="normal" in="SourceGraphic" in2="effect1_dropShadow_1236_588" result="shape"/>
</filter>
</defs>
</svg>
