<svg width="150" height="40" viewBox="0 0 150 40" fill="none" xmlns="http://www.w3.org/2000/svg">
<rect width="150" height="40" fill="#EE1C25"/>
<path d="M18.0938 23.1367L13.9512 23.123L14.5664 19.5957L18.2852 19.623C18.8594 19.6139 19.3379 19.4772 19.7207 19.2129C20.1126 18.9395 20.418 18.584 20.6367 18.1465C20.8646 17.6999 21.015 17.2122 21.0879 16.6836C21.1426 16.2917 21.1608 15.8678 21.1426 15.4121C21.1243 14.9473 21.0104 14.5462 20.8008 14.209C20.6003 13.8626 20.2448 13.6712 19.7344 13.6348L17.082 13.6211L14.2383 30H10.0137L13.459 10.0938L19.8984 10.1074C21.138 10.1439 22.1816 10.4583 23.0293 11.0508C23.877 11.6432 24.5013 12.4271 24.9023 13.4023C25.3034 14.3776 25.4538 15.4622 25.3535 16.6562C25.2441 17.987 24.8613 19.1354 24.2051 20.1016C23.5579 21.0677 22.7057 21.8197 21.6484 22.3574C20.5911 22.8861 19.4062 23.1458 18.0938 23.1367ZM36.5103 26.4863L35.8951 30H27.8013L28.4029 26.4863H36.5103ZM32.6548 10.0938L29.2095 30H24.9849L28.4302 10.0938H32.6548ZM47.6124 14.168L41.0499 30H36.4288L45.8624 10.0938H48.7882L47.6124 14.168ZM47.9542 30L46.8331 13.7852L46.9972 10.0938H49.7862L52.3429 30H47.9542ZM49.3624 22.5762L48.7335 26.0898H40.1612L40.7902 22.5762H49.3624ZM70.6501 10.0938L67.1911 30H63.0759L59.9587 17.1074L57.7028 30H53.4782L56.9235 10.0938H61.0661L64.1833 23L66.4255 10.0938H70.6501ZM81.383 26.4863L80.7678 30H72.3323L72.9475 26.4863H81.383ZM77.1858 10.0938L73.7405 30H69.5159L72.9612 10.0938H77.1858ZM81.7385 18.0781L81.137 21.4688H73.8088L74.4104 18.0781H81.7385ZM84.2268 10.0938L83.6116 13.6211H75.1623L75.7776 10.0938H84.2268ZM89.6961 23.8203L92.0203 10.0938H96.2449L93.907 23.8066C93.7521 24.9551 93.3966 26.0306 92.8406 27.0332C92.2846 28.0267 91.5464 28.8242 90.6258 29.4258C89.7052 30.0273 88.616 30.3145 87.3582 30.2871C86.1277 30.2598 85.1388 29.959 84.3914 29.3848C83.644 28.8105 83.1108 28.0586 82.7918 27.1289C82.4819 26.1992 82.3497 25.1693 82.3953 24.0391L86.6609 24.0527C86.6427 24.3717 86.6245 24.7409 86.6062 25.1602C86.5971 25.5794 86.6655 25.9531 86.8113 26.2812C86.9572 26.6003 87.2625 26.7689 87.7273 26.7871C88.2195 26.7962 88.5978 26.6322 88.8621 26.2949C89.1264 25.9486 89.3178 25.543 89.4363 25.0781C89.5548 24.6042 89.6414 24.1849 89.6961 23.8203ZM104.681 14.168L98.1185 30H93.4974L102.931 10.0938H105.857L104.681 14.168ZM105.023 30L103.902 13.7852L104.066 10.0938H106.855L109.411 30H105.023ZM106.431 22.5762L105.802 26.0898H97.2298L97.8587 22.5762H106.431ZM127.719 10.0938L124.26 30H120.144L117.027 17.1074L114.771 30H110.547L113.992 10.0938H118.135L121.252 23L123.494 10.0938H127.719ZM138.452 26.4863L137.836 30H129.401L130.016 26.4863H138.452ZM134.254 10.0938L130.809 30H126.584L130.03 10.0938H134.254ZM138.807 18.0781L138.206 21.4688H130.877L131.479 18.0781H138.807ZM141.295 10.0938L140.68 13.6211H132.231L132.846 10.0938H141.295Z" fill="white"/>
</svg>
